<svg width="16" height="17" viewBox="0 0 16 17" fill="none" xmlns="http://www.w3.org/2000/svg">
<path d="M13.875 12.875H3.125V3.125C3.125 3.05625 3.06875 3 3 3H2.125C2.05625 3 2 3.05625 2 3.125V13.875C2 13.9438 2.05625 14 2.125 14H13.875C13.9438 14 14 13.9438 14 13.875V13C14 12.9312 13.9438 12.875 13.875 12.875ZM4.5 9.9375C4.5 10.2027 4.60536 10.4571 4.79289 10.6446C4.98043 10.8321 5.23478 10.9375 5.5 10.9375C5.76522 10.9375 6.01957 10.8321 6.20711 10.6446C6.39464 10.4571 6.5 10.2027 6.5 9.9375C6.5 9.67228 6.39464 9.41793 6.20711 9.23039C6.01957 9.04286 5.76522 8.9375 5.5 8.9375C5.23478 8.9375 4.98043 9.04286 4.79289 9.23039C4.60536 9.41793 4.5 9.67228 4.5 9.9375ZM6.34375 6.4375C6.34375 6.63641 6.42277 6.82718 6.56342 6.96783C6.70407 7.10848 6.89484 7.1875 7.09375 7.1875C7.29266 7.1875 7.48343 7.10848 7.62408 6.96783C7.76473 6.82718 7.84375 6.63641 7.84375 6.4375C7.84375 6.23859 7.76473 6.04782 7.62408 5.90717C7.48343 5.76652 7.29266 5.6875 7.09375 5.6875C6.89484 5.6875 6.70407 5.76652 6.56342 5.90717C6.42277 6.04782 6.34375 6.23859 6.34375 6.4375V6.4375ZM8.8125 10C8.8125 10.3978 8.97054 10.7794 9.25184 11.0607C9.53314 11.342 9.91468 11.5 10.3125 11.5C10.7103 11.5 11.0919 11.342 11.3732 11.0607C11.6545 10.7794 11.8125 10.3978 11.8125 10C11.8125 9.60218 11.6545 9.22064 11.3732 8.93934C11.0919 8.65804 10.7103 8.5 10.3125 8.5C9.91468 8.5 9.53314 8.65804 9.25184 8.93934C8.97054 9.22064 8.8125 9.60218 8.8125 10V10ZM11.125 5.09375C11.125 5.32581 11.2172 5.54837 11.3813 5.71247C11.5454 5.87656 11.7679 5.96875 12 5.96875C12.2321 5.96875 12.4546 5.87656 12.6187 5.71247C12.7828 5.54837 12.875 5.32581 12.875 5.09375C12.875 4.86169 12.7828 4.63913 12.6187 4.47503C12.4546 4.31094 12.2321 4.21875 12 4.21875C11.7679 4.21875 11.5454 4.31094 11.3813 4.47503C11.2172 4.63913 11.125 4.86169 11.125 5.09375V5.09375Z" fill="#8C8C8C"/>
</svg>
