<svg width="41" height="41" viewBox="0 0 41 41" fill="none" xmlns="http://www.w3.org/2000/svg">
<path d="M30.3256 5.4333L30.3256 7.5874C30.3256 7.75556 30.4657 7.8957 30.6339 7.8957L33.1083 7.8957L33.1083 33.1083L7.8917 33.1083L7.8917 7.8917L10.3661 7.8917C10.5343 7.8917 10.6744 7.75156 10.6744 7.5834L10.6744 5.4293C10.6744 5.26113 10.5383 5.121 10.3661 5.121L6.3542 5.121C5.67353 5.121 5.125 5.66953 5.125 6.35019L5.125 34.6458C5.125 35.3265 5.67354 35.875 6.3542 35.875L34.6458 35.875C35.3265 35.875 35.875 35.3265 35.875 34.6458L35.875 6.3542C35.875 5.67353 35.3265 5.125 34.6458 5.125L30.6339 5.125C30.4617 5.125 30.3256 5.26514 30.3256 5.4333ZM19.0586 4.88477L19.0586 17.457L16.0156 17.457C15.7474 17.457 15.5952 17.7693 15.7634 17.9775L20.2478 23.6591C20.2777 23.6974 20.316 23.7283 20.3597 23.7496C20.4034 23.7709 20.4514 23.782 20.5 23.782C20.5486 23.782 20.5966 23.7709 20.6403 23.7496C20.684 23.7283 20.7223 23.6974 20.7522 23.6591L25.2366 17.9775C25.4048 17.7653 25.2526 17.457 24.9844 17.457L21.9414 17.457L21.9414 4.88476C21.9414 4.70859 21.7973 4.56445 21.6211 4.56445L19.3789 4.56445C19.2027 4.56445 19.0586 4.70859 19.0586 4.88477Z" fill="#434343"/>
</svg>
