<svg width="16" height="17" viewBox="0 0 16 17" fill="none" xmlns="http://www.w3.org/2000/svg">
<path d="M14.5 3H1.5C1.22344 3 1 3.22344 1 3.5V13.5C1 13.7766 1.22344 14 1.5 14H14.5C14.7766 14 15 13.7766 15 13.5V3.5C15 3.22344 14.7766 3 14.5 3ZM13.875 6.25H10.5625V4.125H13.875V6.25ZM13.875 9.75H10.5625V7.25H13.875V9.75ZM6.4375 7.25H9.5625V9.75H6.4375V7.25ZM9.5625 6.25H6.4375V4.125H9.5625V6.25ZM2.125 7.25H5.4375V9.75H2.125V7.25ZM2.125 4.125H5.4375V6.25H2.125V4.125ZM2.125 10.75H5.4375V12.875H2.125V10.75ZM6.4375 10.75H9.5625V12.875H6.4375V10.75ZM13.875 12.875H10.5625V10.75H13.875V12.875Z" fill="#5E44FF"/>
</svg>
