<?xml version="1.0" encoding="utf-8"?>
<!-- Generator: Adobe Adobe Illustrator 24.2.0, SVG Export Plug-In . SVG Version: 6.00 Build 0)  -->
<svg version="1.1" xmlns="http://www.w3.org/2000/svg" xmlns:xlink="http://www.w3.org/1999/xlink" x="0px" y="0px" width="64px"
	 height="64px" viewBox="0 0 400 400" style="enable-background:new 0 0 400 400;" xml:space="preserve">
<style type="text/css">
	.st0{fill:#151719;}
	.st1{fill:#5658DD;}
	.st2{fill:#FFFFFF;}
</style>
<g id="logo_01">
</g>
<g id="hq">
	<g>
		<circle class="st1" cx="200" cy="200" r="199.5"/>
		<polygon class="st2" points="354.19,204.61 340.87,217.93 334.7,211.75 294.68,251.77 323.93,281.01 363.94,241 357.77,234.83 
			371.09,221.5 		"/>
		<g>
			<path class="st2" d="M296.15,263.32l-16.43,16.43c-22.02,22.02-52.44,34.07-83.65,32.96c-25.68-0.88-49.58-10.17-68.83-26.5
				l93.93-93.93c28.45-28.44,24.21-65.1,7.4-88.82c-16.71-23.56-49.7-39.58-85.71-22.26c-16.19,7.78-30.47,18.7-42.44,32.44
				C57.58,162.83,57.54,237,100.3,286.24l-47.93,47.93c2.13,2.34,4.3,4.64,6.56,6.9c2.26,2.26,4.56,4.43,6.89,6.55l45.07-45.07
				l-5.68-11.13c0,0,8.75,8.63,13.39,12.3c21.83,17.23,48.38,27.03,76.81,28.01c36.43,1.25,72.02-12.79,97.75-38.52l16.34-16.34
				C308.78,275.22,297.33,264.5,296.15,263.32z M114.77,126.14c10.26-11.78,22.48-21.13,36.33-27.79c7.9-3.8,15.42-5.41,22.38-5.41
				c17.52,0,31.55,10.23,39.57,21.53c12.19,17.19,15.27,43.76-5.33,64.36l-93.93,93.92C78.09,230.63,78.42,167.88,114.77,126.14z"/>
		</g>
	</g>
</g>
</svg>
