<svg width="48" height="46" viewBox="0 0 48 46" fill="none" xmlns="http://www.w3.org/2000/svg">
<path d="M37.3256 5.4333L37.3256 7.5874C37.3256 7.75557 37.4657 7.8957 37.6339 7.8957L40.1083 7.8957L40.1083 33.1083L14.8917 33.1083L14.8917 7.8917L17.3661 7.8917C17.5343 7.8917 17.6744 7.75156 17.6744 7.5834L17.6744 5.4293C17.6744 5.26113 17.5383 5.121 17.3661 5.121L13.3542 5.121C12.6735 5.121 12.125 5.66953 12.125 6.35019L12.125 34.6458C12.125 35.3265 12.6735 35.875 13.3542 35.875L41.6458 35.875C42.3265 35.875 42.875 35.3265 42.875 34.6458L42.875 6.3542C42.875 5.67353 42.3265 5.125 41.6458 5.125L37.6339 5.125C37.4617 5.125 37.3256 5.26514 37.3256 5.4333ZM26.0586 4.88477L26.0586 17.457L23.0156 17.457C22.7474 17.457 22.5952 17.7693 22.7634 17.9775L27.2478 23.6591C27.2777 23.6974 27.316 23.7283 27.3597 23.7496C27.4034 23.7709 27.4514 23.782 27.5 23.782C27.5486 23.782 27.5966 23.7709 27.6403 23.7496C27.684 23.7283 27.7223 23.6974 27.7522 23.6591L32.2366 17.9775C32.4048 17.7653 32.2526 17.457 31.9844 17.457L28.9414 17.457L28.9414 4.88476C28.9414 4.70859 28.7973 4.56445 28.6211 4.56445L26.3789 4.56445C26.2027 4.56445 26.0586 4.70859 26.0586 4.88477Z" fill="#434343"/>
<path d="M10.2486 46C15.9087 46 20.4972 41.299 20.4972 35.5C20.4972 29.701 15.9087 25 10.2486 25C4.58845 25 0 29.701 0 35.5C0 41.299 4.58845 46 10.2486 46Z" fill="#5658DD"/>
<path d="M18.1702 35.743L17.4859 36.444L17.1686 36.1189L15.1134 38.2245L16.6158 39.7649L18.6709 37.6581L18.3536 37.333L19.0391 36.632L18.1702 35.743Z" fill="white"/>
<path d="M15.1896 38.833L14.3455 39.6978C13.2138 40.8573 11.6507 41.491 10.048 41.4326C8.72909 41.3856 7.5007 40.8966 6.51154 40.0382L11.3371 35.0942C12.7985 33.5969 12.5816 31.6679 11.7176 30.4195C10.8599 29.18 9.16417 28.3368 7.31477 29.2473C6.48303 29.6575 5.74922 30.2315 5.1344 30.9554C2.93296 33.5449 2.93173 37.4487 5.1282 40.0407L2.66522 42.5628C2.7743 42.686 2.88586 42.8067 3.00238 42.926C3.11766 43.0441 3.23665 43.1597 3.35689 43.2715L5.67237 40.8979L5.37983 40.3125C5.37983 40.3125 5.82979 40.7671 6.06778 40.9601C7.18957 41.8669 8.55308 42.3825 10.0145 42.4346C11.8862 42.5006 13.7146 41.7615 15.0372 40.4064L15.8763 39.5467C15.8379 39.4603 15.2504 38.8952 15.1896 38.833ZM5.87069 31.6133C6.3975 30.9935 7.02595 30.5008 7.73745 30.1503C8.14403 29.9509 8.52953 29.8658 8.88652 29.8658C9.78643 29.8658 10.5078 30.4043 10.9194 30.9986C11.5453 31.9028 11.704 33.3023 10.6454 34.3856L5.81987 39.3295C3.98658 37.1134 4.0027 33.8103 5.87069 31.6133Z" fill="white"/>
</svg>
