<svg width="8" height="10" viewBox="0 0 8 10" fill="none" xmlns="http://www.w3.org/2000/svg">
<path d="M3.71801 7.71807L7.41137 4.02373C7.42797 4.00713 7.43578 3.98467 7.43383 3.96221L7.18481 1.01885C7.17797 0.942677 7.1184 0.883106 7.04223 0.87627L4.09887 0.628224C4.07641 0.626271 4.05297 0.634083 4.03734 0.650685L0.343984 4.34404C0.329445 4.35873 0.321289 4.37856 0.321289 4.39922C0.321289 4.41988 0.329445 4.43971 0.343984 4.4544L3.60766 7.71807C3.63793 7.74932 3.68774 7.74932 3.71801 7.71807ZM4.32934 1.35381L6.5227 1.53936L6.70824 3.73272L3.66234 6.77764L1.28344 4.39971L4.32934 1.35381ZM4.91684 3.17246C4.96037 3.21599 5.01205 3.25051 5.06892 3.27407C5.1258 3.29762 5.18676 3.30974 5.24832 3.30974C5.30988 3.30973 5.37083 3.2976 5.4277 3.27404C5.48458 3.25048 5.53625 3.21595 5.57978 3.17241C5.6233 3.12888 5.65783 3.0772 5.68138 3.02033C5.70494 2.96345 5.71706 2.90249 5.71705 2.84093C5.71705 2.77937 5.70492 2.71842 5.68135 2.66155C5.65779 2.60467 5.62326 2.553 5.57973 2.50947C5.5362 2.46595 5.48452 2.43142 5.42764 2.40787C5.37076 2.38432 5.30981 2.37219 5.24825 2.3722C5.18669 2.3722 5.12573 2.38433 5.06886 2.4079C5.01199 2.43146 4.96031 2.46599 4.91679 2.50952C4.87326 2.55306 4.83874 2.60473 4.81518 2.66161C4.79163 2.71849 4.77951 2.77944 4.77951 2.841C4.77952 2.90256 4.79165 2.96352 4.81521 3.02039C4.83877 3.07726 4.8733 3.12894 4.91684 3.17246ZM7.68774 5.27178L7.30102 4.88604C7.28633 4.8715 7.2665 4.86334 7.24584 4.86334C7.22518 4.86334 7.20535 4.8715 7.19066 4.88604L3.65551 8.41436L1.3352 6.0999C1.32051 6.08536 1.30068 6.07721 1.28002 6.07721C1.25936 6.07721 1.23953 6.08536 1.22484 6.0999L0.838125 6.48565C0.823586 6.50033 0.81543 6.52016 0.81543 6.54082C0.81543 6.56149 0.823586 6.58131 0.838125 6.596L3.21313 8.96709L3.59984 9.35283C3.63012 9.38311 3.67992 9.38311 3.7102 9.35283L7.68774 5.38213C7.71801 5.35186 7.71801 5.30205 7.68774 5.27178Z" fill="#8C8C8C"/>
</svg>

