<svg width="8" height="8" viewBox="0 0 8 8" fill="none" xmlns="http://www.w3.org/2000/svg">
<path d="M5.5625 3.21875C4.3877 3.21875 3.41504 4.08301 3.24512 5.21094H2.125C1.97363 5.21094 1.85156 5.08887 1.85156 4.9375V1.38281H4.69336C4.83203 1.72656 5.16895 1.96875 5.5625 1.96875C6.08008 1.96875 6.5 1.54883 6.5 1.03125C6.5 0.513672 6.08008 0.09375 5.5625 0.09375C5.16895 0.09375 4.83203 0.335937 4.69336 0.679688H0.09375V1.38281H1.14844V4.9375C1.14844 5.47656 1.58594 5.91406 2.125 5.91406H3.24512C3.41504 7.04199 4.3877 7.90625 5.5625 7.90625C6.85645 7.90625 7.90625 6.85645 7.90625 5.5625C7.90625 4.26855 6.85645 3.21875 5.5625 3.21875ZM6.8125 5.81641C6.8125 5.85938 6.77734 5.89453 6.73438 5.89453H5.89453V6.73438C5.89453 6.77734 5.85938 6.8125 5.81641 6.8125H5.30859C5.26562 6.8125 5.23047 6.77734 5.23047 6.73438V5.89453H4.39062C4.34766 5.89453 4.3125 5.85938 4.3125 5.81641V5.30859C4.3125 5.26562 4.34766 5.23047 4.39062 5.23047H5.23047V4.39062C5.23047 4.34766 5.26562 4.3125 5.30859 4.3125H5.81641C5.85938 4.3125 5.89453 4.34766 5.89453 4.39062V5.23047H6.73438C6.77734 5.23047 6.8125 5.26562 6.8125 5.30859V5.81641Z" fill="#8C8C8C"/>
</svg>

