<svg width="144" height="91" viewBox="0 0 144 91" fill="none" xmlns="http://www.w3.org/2000/svg">
<path d="M72 91C111.765 91 144 84.044 144 75.4634C144 66.8828 111.765 59.9268 72 59.9268C32.2355 59.9268 0 66.8828 0 75.4634C0 84.044 32.2355 91 72 91Z" fill="#F5F5F5"/>
<path d="M123.75 30.5405L100.922 5.01166C99.8258 3.27156 98.226 2.21951 96.5408 2.21951H47.4593C45.774 2.21951 44.1742 3.27156 43.0785 5.00944L20.25 30.5427V51.0488H123.75V30.5405Z" stroke="#D9D9D9"/>
<path d="M93.6292 37.5786C93.6292 34.0162 95.8658 31.0754 98.64 31.0732H123.75V71.3285C123.75 76.0405 120.78 79.9024 117.112 79.9024H26.8875C23.22 79.9024 20.25 76.0383 20.25 71.3285V31.0732H45.36C48.1342 31.0732 50.3707 34.0096 50.3707 37.5719V37.6207C50.3707 41.1831 52.632 44.0595 55.404 44.0595H88.596C91.368 44.0595 93.6292 41.1564 93.6292 37.5941V37.5786V37.5786Z" fill="#FAFAFA" stroke="#D9D9D9"/>
</svg>
