<svg width="8" height="10" viewBox="0 0 8 10" fill="none" xmlns="http://www.w3.org/2000/svg">
<path d="M4.40137 4.97168L3.6416 5.94043L3.24023 5.42871C3.23293 5.41937 3.22359 5.41182 3.21293 5.40663C3.20227 5.40143 3.19057 5.39874 3.17871 5.39874C3.16685 5.39874 3.15515 5.40143 3.14449 5.40663C3.13383 5.41182 3.1245 5.41937 3.11719 5.42871L2.14258 6.6709C2.13356 6.68241 2.12797 6.69623 2.12643 6.71078C2.1249 6.72532 2.12749 6.74 2.13391 6.75314C2.14033 6.76628 2.15031 6.77736 2.16273 6.78509C2.17514 6.79282 2.18948 6.79691 2.2041 6.79688H5.79688C5.8623 6.79688 5.89844 6.72168 5.8584 6.6709L4.52539 4.97168C4.51798 4.96233 4.50856 4.95477 4.49782 4.94958C4.48708 4.94438 4.47531 4.94169 4.46338 4.94169C4.45145 4.94169 4.43968 4.94438 4.42894 4.94958C4.4182 4.95477 4.40877 4.96233 4.40137 4.97168ZM2.51562 4.31641C2.51562 4.42001 2.55678 4.51936 2.63004 4.59262C2.70329 4.66588 2.80265 4.70703 2.90625 4.70703C3.00985 4.70703 3.10921 4.66588 3.18246 4.59262C3.25572 4.51936 3.29688 4.42001 3.29688 4.31641C3.29688 4.21281 3.25572 4.11345 3.18246 4.04019C3.10921 3.96694 3.00985 3.92578 2.90625 3.92578C2.80265 3.92578 2.70329 3.96694 2.63004 4.04019C2.55678 4.11345 2.51562 4.21281 2.51562 4.31641ZM7.3457 2.81836L5.24414 0.716797C5.18555 0.658203 5.10645 0.625 5.02344 0.625H0.875C0.702148 0.625 0.5625 0.764648 0.5625 0.9375V9.0625C0.5625 9.23535 0.702148 9.375 0.875 9.375H7.125C7.29785 9.375 7.4375 9.23535 7.4375 9.0625V3.04004C7.4375 2.95703 7.4043 2.87695 7.3457 2.81836ZM6.7168 3.18359H4.87891V1.3457L6.7168 3.18359ZM6.73438 8.67188H1.26562V1.32812H4.21484V3.4375C4.21484 3.54628 4.25806 3.6506 4.33498 3.72752C4.4119 3.80444 4.51622 3.84766 4.625 3.84766H6.73438V8.67188Z" fill="#8C8C8C"/>
</svg>

